<svg xmlns="http://www.w3.org/2000/svg" xmlns:xlink="http://www.w3.org/1999/xlink" width="2000" zoomAndPan="magnify" viewBox="0 0 1500 1499.999933" height="2000" preserveAspectRatio="xMidYMid meet" version="1.0"><defs><filter x="0%" y="0%" width="100%" height="100%" id="cfef99f8f9"><feColorMatrix values="0 0 0 0 1 0 0 0 0 1 0 0 0 0 1 0 0 0 1 0" color-interpolation-filters="sRGB"/></filter><clipPath id="1ceb9143d2"><path d="M 360.128906 421.496094 L 920 421.496094 L 920 912.503906 L 360.128906 912.503906 Z M 360.128906 421.496094 " clip-rule="nonzero"/></clipPath><clipPath id="1a384732c8"><path d="M 360.128906 566.359375 C 360.128906 722.300781 640 912.503906 640 912.503906 C 640 912.503906 918.640625 720.960938 919.871094 566.359375 C 919.871094 486.539062 854.828125 421.496094 775.007812 421.496094 C 713.660156 421.496094 660.824219 460.789062 640 514.75 C 619.175781 460.789062 566.339844 421.496094 504.988281 421.496094 C 425.171875 421.496094 360.128906 486.539062 360.128906 566.359375 " clip-rule="nonzero"/></clipPath><clipPath id="e4a52770d6"><path d="M 0.128906 0.496094 L 560 0.496094 L 560 491.503906 L 0.128906 491.503906 Z M 0.128906 0.496094 " clip-rule="nonzero"/></clipPath><clipPath id="726fb5be26"><path d="M 0.128906 145.359375 C 0.128906 301.300781 280 491.503906 280 491.503906 C 280 491.503906 558.640625 299.960938 559.871094 145.359375 C 559.871094 65.539062 494.828125 0.496094 415.007812 0.496094 C 353.660156 0.496094 300.824219 39.789062 280 93.75 C 259.175781 39.789062 206.339844 0.496094 144.988281 0.496094 C 65.171875 0.496094 0.128906 65.539062 0.128906 145.359375 " clip-rule="nonzero"/></clipPath><clipPath id="e4b75f427b"><rect x="0" width="560" y="0" height="492"/></clipPath><mask id="a9a0fe749c"><g filter="url(#cfef99f8f9)"><rect x="-440" width="2160" fill="#000000" y="-412.999985" height="2159.999904" fill-opacity="0.82"/></g></mask><clipPath id="2b9e8ebc12"><path d="M 0.265625 0.738281 L 446 0.738281 L 446 391.503906 L 0.265625 391.503906 Z M 0.265625 0.738281 " clip-rule="nonzero"/></clipPath><clipPath id="d324130bd2"><path d="M 0.265625 116.023438 C 0.265625 240.132812 223 391.503906 223 391.503906 C 223 391.503906 444.753906 239.0625 445.734375 116.023438 C 445.734375 52.5 393.96875 0.738281 330.445312 0.738281 C 281.625 0.738281 239.570312 32.011719 223 74.953125 C 206.429688 32.011719 164.375 0.738281 115.554688 0.738281 C 52.03125 0.738281 0.265625 52.5 0.265625 116.023438 " clip-rule="nonzero"/></clipPath><clipPath id="e4ef5d7c55"><path d="M 0.265625 0.738281 L 445.960938 0.738281 L 445.960938 391.503906 L 0.265625 391.503906 Z M 0.265625 0.738281 " clip-rule="nonzero"/></clipPath><clipPath id="0fa0ce328d"><path d="M 0.265625 116.023438 C 0.265625 240.132812 223 391.503906 223 391.503906 C 223 391.503906 444.753906 239.0625 445.734375 116.023438 C 445.734375 52.5 393.96875 0.738281 330.445312 0.738281 C 281.625 0.738281 239.570312 32.011719 223 74.953125 C 206.429688 32.011719 164.375 0.738281 115.554688 0.738281 C 52.03125 0.738281 0.265625 52.5 0.265625 116.023438 " clip-rule="nonzero"/></clipPath><clipPath id="e5ac343ff8"><rect x="0" width="446" y="0" height="392"/></clipPath><clipPath id="95a00c0b82"><rect x="0" width="447" y="0" height="392"/></clipPath><clipPath id="797a7c52ca"><rect x="0" width="1294" y="0" height="1279"/></clipPath></defs><rect x="-150" width="1800" fill="#ffffff" y="-149.999993" height="1799.99992" fill-opacity="1"/><rect x="-150" width="1800" fill="#ffffff" y="-149.999993" height="1799.99992" fill-opacity="1"/><g transform="matrix(1, 0, 0, 1, 110, 83)"><g clip-path="url(#797a7c52ca)"><path fill="#1b9ce4" d="M 225.546875 602.847656 C 225.546875 383.503906 403.371094 205.691406 622.71875 205.691406 C 723 205.691406 814.582031 242.867188 884.480469 304.183594 C 808.453125 186.316406 675.984375 108.265625 525.292969 108.265625 C 289.398438 108.265625 98.15625 299.507812 98.15625 535.402344 C 98.15625 740.351562 242.511719 911.558594 435.097656 952.960938 C 310.363281 885.992188 225.546875 754.332031 225.546875 602.847656 " fill-opacity="1" fill-rule="nonzero"/><path fill="#183e9f" d="M 1032.921875 4.40625 C 1025.085938 1.460938 1021.609375 9.644531 1020.269531 20.652344 C 1017.640625 42.148438 1026.242188 63.410156 1042.527344 77.679688 C 1212.824219 226.898438 1179.773438 592.492188 1068.480469 570.691406 C 995.410156 556.394531 1073.230469 339.183594 1012.316406 331.796875 C 971.851562 326.875 935.898438 427.546875 938.46875 560.304688 C 939.9375 636.261719 964.335938 698.945312 985.757812 753.351562 C 1016.804688 832.152344 988.28125 922.375 916.882812 967.9375 C 689.703125 1112.929688 384.574219 1086.210938 186.132812 887.753906 C 81.289062 782.910156 24.40625 648.28125 15.433594 511.09375 C -28.398438 714.238281 28.804688 934.796875 187.082031 1092.414062 C 386.578125 1291.085938 705.125 1332.433594 948.941406 1191.640625 C 1180.378906 1057.976562 1277.183594 782.941406 1290.960938 527.238281 C 1308.472656 201.984375 1121.804688 37.875 1032.921875 4.40625 Z M 1001.023438 182.375 C 1089.488281 260.125 1122.929688 396.285156 1119.003906 505.957031 C 1132.882812 471.953125 1140.429688 422.152344 1138.699219 368.828125 C 1136.40625 297.5625 1119.4375 230.808594 1091.058594 176.707031 C 1054.359375 141.402344 1018.203125 119.070312 991.140625 108.871094 C 983.117188 105.855469 979.671875 114.484375 978.386719 125.878906 C 976.003906 147.261719 984.863281 168.179688 1001.023438 182.375 " fill-opacity="1" fill-rule="nonzero"/><g clip-path="url(#1ceb9143d2)"><g clip-path="url(#1a384732c8)"><g transform="matrix(1, 0, 0, 1, 360, 421)"><g clip-path="url(#e4b75f427b)"><g clip-path="url(#e4a52770d6)"><g clip-path="url(#726fb5be26)"><path fill="#183e9f" d="M 0.128906 0.496094 L 559.359375 0.496094 L 559.359375 491.503906 L 0.128906 491.503906 Z M 0.128906 0.496094 " fill-opacity="1" fill-rule="nonzero"/></g></g></g></g></g></g><g mask="url(#a9a0fe749c)"><g transform="matrix(1, 0, 0, 1, 417, 521)"><g clip-path="url(#95a00c0b82)"><g clip-path="url(#2b9e8ebc12)"><g clip-path="url(#d324130bd2)"><g transform="matrix(1, 0, 0, 1, 0, 0.000000000000113687)"><g clip-path="url(#e5ac343ff8)"><g clip-path="url(#e4ef5d7c55)"><g clip-path="url(#0fa0ce328d)"><path fill="#54afe6" d="M 0.265625 0.738281 L 445.328125 0.738281 L 445.328125 391.503906 L 0.265625 391.503906 Z M 0.265625 0.738281 " fill-opacity="1" fill-rule="nonzero"/></g></g></g></g></g></g></g></g></g></g></g></svg>